<svg width="19" height="25" viewBox="0 0 19 25" fill="none" xmlns="http://www.w3.org/2000/svg">
<path d="M3.25 0C2.4212 0 1.62634 0.32924 1.04029 0.915291C0.45424 1.50134 0.125 2.2962 0.125 3.125V21.875C0.125 22.7038 0.45424 23.4987 1.04029 24.0847C1.62634 24.6708 2.4212 25 3.25 25H15.75C16.5788 25 17.3737 24.6708 17.9597 24.0847C18.5458 23.4987 18.875 22.7038 18.875 21.875V3.125C18.875 2.2962 18.5458 1.50134 17.9597 0.915291C17.3737 0.32924 16.5788 0 15.75 0L3.25 0ZM3.25 1.5625H15.75C16.1644 1.5625 16.5618 1.72712 16.8549 2.02015C17.1479 2.31317 17.3125 2.7106 17.3125 3.125V21.875C17.3125 22.2894 17.1479 22.6868 16.8549 22.9799C16.5618 23.2729 16.1644 23.4375 15.75 23.4375H3.25C2.8356 23.4375 2.43817 23.2729 2.14515 22.9799C1.85212 22.6868 1.6875 22.2894 1.6875 21.875V3.125C1.6875 2.7106 1.85212 2.31317 2.14515 2.02015C2.43817 1.72712 2.8356 1.5625 3.25 1.5625V1.5625Z" fill="#6200EE"/>
<path d="M4.19222 18.886C3.88768 18.7642 3.64232 18.5289 3.50785 18.2297C3.20316 17.6235 3.30472 17.0172 3.63285 16.5078C3.94222 16.0281 4.45472 15.6203 5.03441 15.2781C5.76869 14.8617 6.54486 14.5239 7.35003 14.2703C7.97532 13.1462 8.52953 11.9841 9.00941 10.7906C8.7225 10.1387 8.49755 9.46127 8.33753 8.76721C8.20316 8.14221 8.1516 7.52346 8.26566 6.99221C8.38285 6.43909 8.69378 5.94221 9.28128 5.70627C9.58128 5.58596 9.90628 5.51877 10.2219 5.58596C10.3807 5.61976 10.5299 5.68847 10.6588 5.78712C10.7878 5.88576 10.8931 6.01186 10.9672 6.15627C11.1047 6.41252 11.1547 6.71252 11.1657 6.9969C11.1766 7.28909 11.1469 7.61409 11.0922 7.95627C10.961 8.75315 10.6703 9.72815 10.2797 10.7594C10.7108 11.6813 11.2232 12.5629 11.811 13.3938C12.5064 13.3388 13.2059 13.3651 13.8953 13.4719C14.4641 13.5735 15.0422 13.7766 15.3953 14.1985C15.5828 14.4235 15.6969 14.6985 15.7078 15.0078C15.7188 15.3078 15.6344 15.6047 15.4922 15.8875C15.3691 16.1496 15.1781 16.374 14.9391 16.5375C14.7029 16.6916 14.4239 16.7671 14.1422 16.7531C13.625 16.7313 13.1203 16.4469 12.6844 16.1016C12.1544 15.6633 11.6767 15.1652 11.261 14.6172C10.2043 14.7371 9.16022 14.9493 8.14066 15.2516C7.67323 16.0797 7.13972 16.8687 6.54535 17.611C6.09222 18.1578 5.59535 18.6344 5.09847 18.8406C4.81298 18.9698 4.48917 18.986 4.19222 18.886V18.886ZM6.34691 15.9156C6.08753 16.0344 5.84691 16.1594 5.62972 16.2875C5.11722 16.5906 4.78441 16.886 4.61878 17.1422C4.47191 17.3688 4.46878 17.5328 4.55628 17.7063C4.57191 17.7406 4.58753 17.7625 4.59691 17.775C4.61555 17.77 4.63382 17.7638 4.6516 17.7563C4.86566 17.6688 5.20628 17.3891 5.64378 16.8625C5.8926 16.5579 6.12723 16.2419 6.34691 15.9156V15.9156ZM8.90941 13.8375C9.43115 13.7157 9.95762 13.615 10.4875 13.536C10.2029 13.1007 9.93704 12.6534 9.69066 12.1953C9.44563 12.7494 9.18511 13.2965 8.90941 13.836V13.8375ZM12.7313 14.5406C12.9657 14.7938 13.1938 15.0094 13.411 15.1813C13.786 15.4781 14.0469 15.5766 14.1891 15.5813C14.2272 15.5863 14.2658 15.578 14.2985 15.5578C14.3635 15.5065 14.4141 15.4392 14.4453 15.3625C14.5009 15.2673 14.5325 15.1601 14.5375 15.05C14.5366 15.0133 14.5222 14.9782 14.4969 14.9516C14.4157 14.8547 14.1844 14.7141 13.6875 14.625C13.3715 14.5722 13.0517 14.5445 12.7313 14.5422V14.5406ZM9.62191 9.06252C9.75341 8.63834 9.85779 8.20622 9.93441 7.76877C9.98285 7.47502 10.0016 7.23284 9.99378 7.04221C9.99422 6.93704 9.97732 6.83252 9.94378 6.73284C9.86562 6.74251 9.78929 6.76357 9.71722 6.79534C9.58128 6.85002 9.47035 6.96096 9.41097 7.23752C9.34847 7.53752 9.3641 7.97034 9.48285 8.5219C9.52035 8.69534 9.56722 8.87659 9.62347 9.06252H9.62191Z" fill="#6200EE"/>
</svg>
